<?xml version="1.0" standalone="no"?>
<!DOCTYPE svg PUBLIC "-//W3C//DTD SVG 1.1//EN" "http://www.w3.org/Graphics/SVG/1.1/DTD/svg11.dtd">
<svg height="361" width="680" version="1.1" xmlns="http://www.w3.org/2000/svg" xmlns:xlink= "http://www.w3.org/1999/xlink">
  <line x1="200" y1="180" x2="233" y2="180" stroke="rgb(0,0,0)" stroke-width="2" />
  <line x1="200" y1="180" x2="200" y2="140" stroke="rgb(0,0,0)" stroke-width="2" />
  <line x1="233" y1="180" x2="273" y2="180" stroke="rgb(0,0,0)" stroke-width="2" />
  <line x1="233" y1="180" x2="233" y2="140" stroke="rgb(0,0,0)" stroke-width="2" />
  <line x1="315" y1="256" x2="310" y2="224" stroke="rgb(0,0,0)" stroke-width="2" />
  <line x1="104" y1="226" x2="120" y2="256" stroke="rgb(0,0,0)" stroke-width="2" />
  <line x1="104" y1="226" x2="97" y2="206" stroke="rgb(0,0,0)" stroke-width="2" />
  <line x1="104" y1="226" x2="137" y2="226" stroke="rgb(0,0,0)" stroke-width="2" />
  <line x1="88" y1="201" x2="66" y2="199" stroke="rgb(0,0,0)" stroke-width="2" />
  <line x1="88" y1="201" x2="99" y2="188" stroke="rgb(0,0,0)" stroke-width="2" />
  <line x1="66" y1="199" x2="50" y2="187" stroke="rgb(0,0,0)" stroke-width="2" />
  <line x1="273" y1="224" x2="310" y2="224" stroke="rgb(0,0,0)" stroke-width="2" />
  <line x1="40" y1="241" x2="40" y2="256" stroke="rgb(0,0,0)" stroke-width="2" />
  <line x1="40" y1="241" x2="50" y2="228" stroke="rgb(0,0,0)" stroke-width="2" />
  <line x1="273" y1="180" x2="302" y2="180" stroke="rgb(0,0,0)" stroke-width="2" />
  <line x1="59" y1="140" x2="102" y2="140" stroke="rgb(0,0,0)" stroke-width="2" />
  <line x1="458" y1="300" x2="468" y2="262" stroke="rgb(0,0,0)" stroke-width="2" />
  <line x1="458" y1="300" x2="435" y2="240" stroke="rgb(0,0,0)" stroke-width="2" />
  <line x1="498" y1="300" x2="521" y2="283" stroke="rgb(0,0,0)" stroke-width="2" />
  <line x1="498" y1="300" x2="517" y2="321" stroke="rgb(0,0,0)" stroke-width="2" />
  <line x1="392" y1="272" x2="385" y2="242" stroke="rgb(0,0,0)" stroke-width="2" />
  <line x1="610" y1="206" x2="640" y2="178" stroke="rgb(0,0,0)" stroke-width="2" />
  <line x1="640" y1="178" x2="639" y2="158" stroke="rgb(0,0,0)" stroke-width="2" />
  <line x1="543" y1="117" x2="547" y2="150" stroke="rgb(0,0,0)" stroke-width="2" />
  <line x1="543" y1="117" x2="608" y2="109" stroke="rgb(0,0,0)" stroke-width="2" />
  <line x1="639" y1="158" x2="639" y2="136" stroke="rgb(0,0,0)" stroke-width="2" />
  <line x1="233" y1="224" x2="233" y2="256" stroke="rgb(0,0,0)" stroke-width="2" />
  <line x1="233" y1="224" x2="200" y2="224" stroke="rgb(0,0,0)" stroke-width="2" />
  <line x1="233" y1="140" x2="200" y2="140" stroke="rgb(0,0,0)" stroke-width="2" />
  <line x1="325" y1="299" x2="353" y2="293" stroke="rgb(0,0,0)" stroke-width="2" />
  <line x1="310" y1="224" x2="336" y2="219" stroke="rgb(0,0,0)" stroke-width="2" />
  <line x1="302" y1="180" x2="329" y2="175" stroke="rgb(0,0,0)" stroke-width="2" />
  <line x1="99" y1="188" x2="144" y2="186" stroke="rgb(0,0,0)" stroke-width="2" />
  <line x1="144" y1="186" x2="156" y2="197" stroke="rgb(0,0,0)" stroke-width="2" />
  <line x1="353" y1="293" x2="343" y2="252" stroke="rgb(0,0,0)" stroke-width="2" />
  <line x1="519" y1="170" x2="512" y2="131" stroke="rgb(0,0,0)" stroke-width="2" />
  <line x1="512" y1="131" x2="511" y2="119" stroke="rgb(0,0,0)" stroke-width="2" />
  <line x1="512" y1="131" x2="493" y2="131" stroke="rgb(0,0,0)" stroke-width="2" />
  <line x1="511" y1="119" x2="406" y2="130" stroke="rgb(0,0,0)" stroke-width="2" />
  <line x1="329" y1="175" x2="336" y2="219" stroke="rgb(0,0,0)" stroke-width="2" />
  <line x1="329" y1="175" x2="320" y2="140" stroke="rgb(0,0,0)" stroke-width="2" />
  <line x1="405" y1="311" x2="392" y2="311" stroke="rgb(0,0,0)" stroke-width="2" />
  <line x1="156" y1="256" x2="212" y2="256" stroke="rgb(0,0,0)" stroke-width="2" />
  <line x1="638" y1="240" x2="638" y2="226" stroke="rgb(0,0,0)" stroke-width="2" />
  <line x1="343" y1="252" x2="336" y2="219" stroke="rgb(0,0,0)" stroke-width="2" />
  <line x1="385" y1="242" x2="384" y2="207" stroke="rgb(0,0,0)" stroke-width="2" />
  <line x1="435" y1="240" x2="430" y2="203" stroke="rgb(0,0,0)" stroke-width="2" />
  <line x1="603" y1="219" x2="638" y2="226" stroke="rgb(0,0,0)" stroke-width="2" />
  <line x1="212" y1="256" x2="200" y2="224" stroke="rgb(0,0,0)" stroke-width="2" />
  <line x1="233" y1="256" x2="273" y2="256" stroke="rgb(0,0,0)" stroke-width="2" />
  <line x1="137" y1="226" x2="137" y2="206" stroke="rgb(0,0,0)" stroke-width="2" />
  <line x1="137" y1="206" x2="156" y2="206" stroke="rgb(0,0,0)" stroke-width="2" />
  <line x1="430" y1="203" x2="428" y2="170" stroke="rgb(0,0,0)" stroke-width="2" />
  <line x1="491" y1="193" x2="493" y2="170" stroke="rgb(0,0,0)" stroke-width="2" />
  <line x1="156" y1="206" x2="156" y2="197" stroke="rgb(0,0,0)" stroke-width="2" />
  <line x1="315" y1="256" x2="317" y2="265" stroke="rgb(0,0,0)" stroke-width="2" />
  <line x1="325" y1="299" x2="317" y2="265" stroke="rgb(0,0,0)" stroke-width="2" />
  <line x1="353" y1="293" x2="361" y2="297" stroke="rgb(0,0,0)" stroke-width="2" />
  <line x1="392" y1="311" x2="361" y2="297" stroke="rgb(0,0,0)" stroke-width="2" />
  <line x1="458" y1="300" x2="466" y2="300" stroke="rgb(0,0,0)" stroke-width="2" />
  <line x1="498" y1="300" x2="466" y2="300" stroke="rgb(0,0,0)" stroke-width="2" />
  <line x1="517" y1="321" x2="571" y2="321" stroke="rgb(0,0,0)" stroke-width="2" />
  <line x1="637" y1="321" x2="571" y2="321" stroke="rgb(0,0,0)" stroke-width="2" />
  <line x1="638" y1="240" x2="638" y2="248" stroke="rgb(0,0,0)" stroke-width="2" />
  <line x1="640" y1="178" x2="639" y2="188" stroke="rgb(0,0,0)" stroke-width="2" />
  <line x1="638" y1="226" x2="639" y2="188" stroke="rgb(0,0,0)" stroke-width="2" />
  <line x1="608" y1="109" x2="619" y2="118" stroke="rgb(0,0,0)" stroke-width="2" />
  <line x1="639" y1="136" x2="619" y2="118" stroke="rgb(0,0,0)" stroke-width="2" />
  <line x1="543" y1="117" x2="525" y2="118" stroke="rgb(0,0,0)" stroke-width="2" />
  <line x1="511" y1="119" x2="525" y2="118" stroke="rgb(0,0,0)" stroke-width="2" />
  <line x1="374" y1="140" x2="380" y2="183" stroke="rgb(0,0,0)" stroke-width="2" />
  <line x1="384" y1="207" x2="380" y2="183" stroke="rgb(0,0,0)" stroke-width="2" />
  <line x1="336" y1="219" x2="359" y2="213" stroke="rgb(0,0,0)" stroke-width="2" />
  <line x1="384" y1="207" x2="359" y2="213" stroke="rgb(0,0,0)" stroke-width="2" />
  <line x1="273" y1="224" x2="255" y2="224" stroke="rgb(0,0,0)" stroke-width="2" />
  <line x1="233" y1="224" x2="255" y2="224" stroke="rgb(0,0,0)" stroke-width="2" />
  <line x1="233" y1="180" x2="233" y2="196" stroke="rgb(0,0,0)" stroke-width="2" />
  <line x1="233" y1="224" x2="233" y2="196" stroke="rgb(0,0,0)" stroke-width="2" />
  <line x1="200" y1="180" x2="200" y2="203" stroke="rgb(0,0,0)" stroke-width="2" />
  <line x1="200" y1="224" x2="200" y2="203" stroke="rgb(0,0,0)" stroke-width="2" />
  <line x1="212" y1="256" x2="221" y2="256" stroke="rgb(0,0,0)" stroke-width="2" />
  <line x1="233" y1="256" x2="221" y2="256" stroke="rgb(0,0,0)" stroke-width="2" />
  <line x1="521" y1="283" x2="521" y2="266" stroke="rgb(0,0,0)" stroke-width="2" />
  <line x1="521" y1="249" x2="521" y2="266" stroke="rgb(0,0,0)" stroke-width="2" />
  <line x1="521" y1="249" x2="584" y2="226" stroke="rgb(0,0,0)" stroke-width="2" />
  <line x1="603" y1="219" x2="584" y2="226" stroke="rgb(0,0,0)" stroke-width="2" />
  <line x1="273" y1="140" x2="241" y2="140" stroke="rgb(0,0,0)" stroke-width="2" />
  <line x1="233" y1="140" x2="241" y2="140" stroke="rgb(0,0,0)" stroke-width="2" />
  <line x1="233" y1="140" x2="233" y2="111" stroke="rgb(0,0,0)" stroke-width="2" />
  <line x1="233" y1="86" x2="233" y2="111" stroke="rgb(0,0,0)" stroke-width="2" />
  <line x1="144" y1="140" x2="169" y2="140" stroke="rgb(0,0,0)" stroke-width="2" />
  <line x1="200" y1="140" x2="169" y2="140" stroke="rgb(0,0,0)" stroke-width="2" />
  <line x1="144" y1="140" x2="121" y2="140" stroke="rgb(0,0,0)" stroke-width="2" />
  <line x1="102" y1="140" x2="121" y2="140" stroke="rgb(0,0,0)" stroke-width="2" />
  <line x1="50" y1="187" x2="55" y2="164" stroke="rgb(0,0,0)" stroke-width="2" />
  <line x1="59" y1="140" x2="55" y2="164" stroke="rgb(0,0,0)" stroke-width="2" />
  <line x1="50" y1="228" x2="50" y2="214" stroke="rgb(0,0,0)" stroke-width="2" />
  <line x1="50" y1="187" x2="50" y2="214" stroke="rgb(0,0,0)" stroke-width="2" />
  <line x1="40" y1="256" x2="77" y2="256" stroke="rgb(0,0,0)" stroke-width="2" />
  <line x1="120" y1="256" x2="77" y2="256" stroke="rgb(0,0,0)" stroke-width="2" />
  <line x1="120" y1="256" x2="138" y2="256" stroke="rgb(0,0,0)" stroke-width="2" />
  <line x1="156" y1="256" x2="138" y2="256" stroke="rgb(0,0,0)" stroke-width="2" />
  <line x1="99" y1="188" x2="100" y2="175" stroke="rgb(0,0,0)" stroke-width="2" />
  <line x1="102" y1="140" x2="100" y2="175" stroke="rgb(0,0,0)" stroke-width="2" />
  <line x1="97" y1="206" x2="90" y2="202" stroke="rgb(0,0,0)" stroke-width="2" />
  <line x1="88" y1="201" x2="90" y2="202" stroke="rgb(0,0,0)" stroke-width="2" />
  <line x1="156" y1="256" x2="156" y2="232" stroke="rgb(0,0,0)" stroke-width="2" />
  <line x1="156" y1="206" x2="156" y2="232" stroke="rgb(0,0,0)" stroke-width="2" />
  <line x1="97" y1="206" x2="122" y2="206" stroke="rgb(0,0,0)" stroke-width="2" />
  <line x1="137" y1="206" x2="122" y2="206" stroke="rgb(0,0,0)" stroke-width="2" />
  <line x1="310" y1="224" x2="306" y2="198" stroke="rgb(0,0,0)" stroke-width="2" />
  <line x1="302" y1="180" x2="306" y2="198" stroke="rgb(0,0,0)" stroke-width="2" />
  <line x1="144" y1="186" x2="144" y2="169" stroke="rgb(0,0,0)" stroke-width="2" />
  <line x1="144" y1="140" x2="144" y2="169" stroke="rgb(0,0,0)" stroke-width="2" />
  <line x1="392" y1="272" x2="457" y2="252" stroke="rgb(0,0,0)" stroke-width="2" />
  <line x1="457" y1="252" x2="565" y2="220" stroke="rgb(0,0,0)" stroke-width="2" />
  <line x1="610" y1="206" x2="565" y2="220" stroke="rgb(0,0,0)" stroke-width="2" />
  <line x1="284" y1="140" x2="305" y2="140" stroke="rgb(0,0,0)" stroke-width="2" />
  <line x1="320" y1="140" x2="305" y2="140" stroke="rgb(0,0,0)" stroke-width="2" />
  <line x1="458" y1="300" x2="415" y2="309" stroke="rgb(0,0,0)" stroke-width="2" />
  <line x1="405" y1="311" x2="415" y2="309" stroke="rgb(0,0,0)" stroke-width="2" />
  <line x1="637" y1="291" x2="638" y2="248" stroke="rgb(0,0,0)" stroke-width="2" />
  <line x1="637" y1="321" x2="637" y2="291" stroke="rgb(0,0,0)" stroke-width="2" />
  <line x1="571" y1="166" x2="600" y2="163" stroke="rgb(0,0,0)" stroke-width="2" />
  <line x1="639" y1="158" x2="600" y2="163" stroke="rgb(0,0,0)" stroke-width="2" />
  <line x1="493" y1="131" x2="493" y2="155" stroke="rgb(0,0,0)" stroke-width="2" />
  <line x1="493" y1="170" x2="493" y2="155" stroke="rgb(0,0,0)" stroke-width="2" />
  <line x1="430" y1="203" x2="419" y2="204" stroke="rgb(0,0,0)" stroke-width="2" />
  <line x1="384" y1="207" x2="419" y2="204" stroke="rgb(0,0,0)" stroke-width="2" />
  <line x1="430" y1="203" x2="467" y2="197" stroke="rgb(0,0,0)" stroke-width="2" />
  <line x1="491" y1="193" x2="467" y2="197" stroke="rgb(0,0,0)" stroke-width="2" />
  <line x1="468" y1="262" x2="479" y2="260" stroke="rgb(0,0,0)" stroke-width="2" />
  <line x1="521" y1="249" x2="479" y2="260" stroke="rgb(0,0,0)" stroke-width="2" />
  <line x1="521" y1="249" x2="580" y2="244" stroke="rgb(0,0,0)" stroke-width="2" />
  <line x1="638" y1="240" x2="580" y2="244" stroke="rgb(0,0,0)" stroke-width="2" />
  <line x1="315" y1="256" x2="286" y2="256" stroke="rgb(255,0,0)" stroke-width="2" />
  <line x1="315" y1="256" x2="343" y2="252" stroke="rgb(255,0,0)" stroke-width="2" />
  <line x1="343" y1="252" x2="365" y2="247" stroke="rgb(255,0,0)" stroke-width="2" />
  <line x1="385" y1="242" x2="365" y2="247" stroke="rgb(255,0,0)" stroke-width="2" />
  <line x1="385" y1="242" x2="398" y2="240" stroke="rgb(255,0,0)" stroke-width="2" />
  <line x1="398" y1="240" x2="426" y2="240" stroke="rgb(255,0,0)" stroke-width="2" />
  <line x1="435" y1="240" x2="426" y2="240" stroke="rgb(255,0,0)" stroke-width="2" />
  <line x1="435" y1="240" x2="460" y2="222" stroke="rgb(255,0,0)" stroke-width="2" />
  <line x1="460" y1="222" x2="527" y2="198" stroke="rgb(255,0,0)" stroke-width="2" />
  <line x1="562" y1="186" x2="527" y2="198" stroke="rgb(255,0,0)" stroke-width="2" />
  <line x1="571" y1="166" x2="562" y2="186" stroke="rgb(255,0,0)" stroke-width="2" />
  <line x1="571" y1="166" x2="557" y2="157" stroke="rgb(255,0,0)" stroke-width="2" />
  <line x1="547" y1="150" x2="557" y2="157" stroke="rgb(255,0,0)" stroke-width="2" />
  <line x1="547" y1="150" x2="519" y2="170" stroke="rgb(255,0,0)" stroke-width="2" />
  <line x1="519" y1="170" x2="493" y2="170" stroke="rgb(255,0,0)" stroke-width="2" />
  <line x1="493" y1="170" x2="459" y2="170" stroke="rgb(255,0,0)" stroke-width="2" />
  <line x1="428" y1="170" x2="459" y2="170" stroke="rgb(255,0,0)" stroke-width="2" />
  <line x1="406" y1="130" x2="428" y2="170" stroke="rgb(255,0,0)" stroke-width="2" />
  <line x1="406" y1="130" x2="390" y2="135" stroke="rgb(255,0,0)" stroke-width="2" />
  <line x1="374" y1="140" x2="390" y2="135" stroke="rgb(255,0,0)" stroke-width="2" />
  <line x1="320" y1="140" x2="374" y2="140" stroke="rgb(255,0,0)" stroke-width="2" />
  <line x1="320" y1="140" x2="312" y2="91" stroke="rgb(255,0,0)" stroke-width="2" />
  <line x1="304" y1="41" x2="312" y2="91" stroke="rgb(255,0,0)" stroke-width="2" />
  <line x1="304" y1="41" x2="263" y2="56" stroke="rgb(255,0,0)" stroke-width="2" />
  <line x1="233" y1="67" x2="263" y2="56" stroke="rgb(255,0,0)" stroke-width="2" />
  <line x1="233" y1="86" x2="233" y2="67" stroke="rgb(255,0,0)" stroke-width="2" />
  <line x1="233" y1="86" x2="257" y2="86" stroke="rgb(255,0,0)" stroke-width="2" />
  <line x1="257" y1="86" x2="271" y2="108" stroke="rgb(255,0,0)" stroke-width="2" />
  <line x1="284" y1="127" x2="271" y2="108" stroke="rgb(255,0,0)" stroke-width="2" />
  <line x1="284" y1="140" x2="284" y2="127" stroke="rgb(255,0,0)" stroke-width="2" />
  <line x1="273" y1="140" x2="284" y2="140" stroke="rgb(255,0,0)" stroke-width="2" />
  <line x1="273" y1="140" x2="273" y2="180" stroke="rgb(255,0,0)" stroke-width="2" />
  <line x1="273" y1="180" x2="273" y2="199" stroke="rgb(255,0,0)" stroke-width="2" />
  <line x1="273" y1="224" x2="273" y2="199" stroke="rgb(255,0,0)" stroke-width="2" />
  <line x1="273" y1="224" x2="273" y2="256" stroke="rgb(255,0,0)" stroke-width="2" />
  <line x1="273" y1="256" x2="286" y2="256" stroke="rgb(255,0,0)" stroke-width="2" />
  <circle cx="426" cy="240" r="5" stroke="rgb(255,0,0)" stroke-width="1" fill="rgb(255,0,0)" />
  <text x="426" y="233" text-anchor="middle" alignment-baseline="baseline" fill="rgb(255,0,0)">S1</text>
  <circle cx="527" cy="198" r="5" stroke="rgb(255,0,0)" stroke-width="1" fill="rgb(255,0,0)" />
  <text x="527" y="191" text-anchor="middle" alignment-baseline="baseline" fill="rgb(255,0,0)">S2</text>
  <circle cx="557" cy="157" r="5" stroke="rgb(255,0,0)" stroke-width="1" fill="rgb(255,0,0)" />
  <text x="553.5" y="160.5" text-anchor="end" alignment-baseline="hanging" fill="rgb(255,0,0)">S3</text>
  <circle cx="459" cy="170" r="5" stroke="rgb(255,0,0)" stroke-width="1" fill="rgb(255,0,0)" />
  <text x="459" y="163" text-anchor="middle" alignment-baseline="baseline" fill="rgb(255,0,0)">S4</text>
  <circle cx="390" cy="135" r="5" stroke="rgb(255,0,0)" stroke-width="1" fill="rgb(255,0,0)" />
  <text x="390" y="128" text-anchor="middle" alignment-baseline="baseline" fill="rgb(255,0,0)">S5</text>
  <circle cx="312" cy="91" r="5" stroke="rgb(255,0,0)" stroke-width="1" fill="rgb(255,0,0)" />
  <text x="319" y="91" text-anchor="start" alignment-baseline="central" fill="rgb(255,0,0)">S6</text>
  <circle cx="263" cy="56" r="5" stroke="rgb(255,0,0)" stroke-width="1" fill="rgb(255,0,0)" />
  <text x="263" y="49" text-anchor="middle" alignment-baseline="baseline" fill="rgb(255,0,0)">S7</text>
  <circle cx="271" cy="108" r="5" stroke="rgb(255,0,0)" stroke-width="1" fill="rgb(255,0,0)" />
  <text x="274.5" y="104.5" text-anchor="start" alignment-baseline="baseline" fill="rgb(255,0,0)">S8</text>
  <circle cx="273" cy="199" r="5" stroke="rgb(255,0,0)" stroke-width="1" fill="rgb(255,0,0)" />
  <text x="266" y="199" text-anchor="end" alignment-baseline="central" fill="rgb(255,0,0)">S9</text>
  <rect x="281" y="251" width="10" height="10" stroke="rgb(255,0,0)" stroke-width="1" fill="rgb(255,0,0)" />
  <text x="286" y="263" text-anchor="middle" alignment-baseline="hanging" fill="rgb(255,0,0)">Campus</text>
</svg>
